<svg width="22" height="22" viewBox="0 0 32 32" fill="none" xmlns="http://www.w3.org/2000/svg">
    <path
        d="M28.471 16.472l-9.333 9.333c-0.121 0.121-0.288 0.195-0.472 0.195-0.369 0-0.668-0.299-0.668-0.668 0-0.184 0.075-0.351 0.195-0.472l8.197-8.195h-22.391c-0.368 0-0.667-0.298-0.667-0.667s0.298-0.667 0.667-0.667v0h22.391l-8.196-8.195c-0.121-0.121-0.195-0.288-0.195-0.472 0-0.369 0.299-0.668 0.668-0.668 0.184 0 0.351 0.075 0.472 0.196v0l9.333 9.333c0.121 0.121 0.196 0.288 0.196 0.472s-0.075 0.351-0.196 0.472v0z"
        fill="green" />
</svg>